<svg width="209" height="180" viewBox="0 0 209 180" fill="none" xmlns="http://www.w3.org/2000/svg">
<path opacity="0.08" d="M106.5 180C156.206 180 196.5 139.706 196.5 90C196.5 40.2944 156.206 0 106.5 0C56.7949 0 16.5005 40.2944 16.5005 90C16.5005 139.706 56.7949 180 106.5 180Z" fill="#E03C31"/>
<path d="M203.263 74.9301C206.707 68.4336 204.316 60.3307 197.921 56.8318C191.526 53.3329 183.549 55.763 180.104 62.2595C176.66 68.756 179.051 76.8589 185.446 80.3577C191.841 83.8566 199.818 81.4266 203.263 74.9301Z" fill="#DFF6FD"/>
<path d="M194.112 83.5688C185.984 84.9268 178.279 79.3122 176.943 71.0544C175.606 62.7967 181.132 54.9698 189.261 53.6117C197.389 52.2537 205.093 57.8684 206.43 66.1261C207.767 74.3838 202.24 82.2107 194.112 83.5688ZM190.094 58.781C184.769 59.6718 181.154 64.7973 182.031 70.2075C182.908 75.6177 187.953 79.2902 193.278 78.3995C198.604 77.5087 202.218 72.3833 201.342 66.973C200.465 61.5628 195.42 57.8903 190.094 58.781Z" fill="#ACE0F0"/>
<path d="M191.681 74.3886C194.837 74.3886 197.395 71.7898 197.395 68.5839C197.395 65.3781 194.837 62.7793 191.681 62.7793C188.525 62.7793 185.967 65.3781 185.967 68.5839C185.967 71.7898 188.525 74.3886 191.681 74.3886Z" fill="#E03C31"/>
<path d="M62.7593 32.694C65.7274 27.2545 69.6802 22.3991 74.7109 18.8141C79.3033 15.5431 84.7293 13.893 90.2128 12.9804C100.166 11.3229 110.904 12.8927 118.536 20.0773C127.958 28.9411 130.322 43.0107 129.568 55.4741C128.813 67.8937 124.666 79.8533 118.263 90.411C111.443 101.662 102.301 111.453 91.6501 119.04C90.2918 120.011 88.9048 120.945 87.4962 121.829C87.8699 121.763 88.2508 121.705 88.6245 121.639C78.024 121.814 67.3732 120.617 57.053 118.171C46.51 115.666 35.967 111.651 26.9188 105.532C18.2013 99.6326 11.0288 91.7253 7.32766 81.6859C3.40368 71.0479 4.03611 58.475 10.0443 48.5598C13.0699 43.5729 17.346 39.4696 22.7146 37.2281C29.3408 34.4609 37.0019 34.6945 43.7934 36.6951C45.6619 37.25 47.4874 37.929 49.2769 38.7176C51.821 39.8347 53.3446 35.7532 50.8149 34.6434C37.9936 29.0068 22.0031 29.0798 11.5894 39.5864C3.08027 48.1801 -0.664041 61.14 0.816435 73.1215C2.16036 83.9931 7.62231 94.0982 15.3265 101.655C23.1673 109.343 32.9054 114.739 43.1034 118.499C53.3805 122.281 64.2398 124.537 75.1206 125.501C77.6647 125.728 80.2232 125.881 82.7745 125.954C84.0178 125.99 85.2683 126.005 86.5116 126.005C87.0578 126.005 87.6112 125.998 88.1574 125.99C89.3935 125.961 90.3637 125.129 91.3699 124.464C97.8451 120.222 103.796 115.155 109.107 109.482C118.795 99.1288 126.621 86.7384 130.746 73.0119C132.823 66.1049 133.944 58.9277 133.966 51.6993C133.995 44.0767 132.917 36.3665 129.927 29.328C127.275 23.0781 123.02 17.4269 117.393 13.6667C112.413 10.3373 106.57 8.53384 100.641 8.11036C94.5177 7.67228 88.3298 8.56304 82.4583 10.3446C75.6524 12.4108 69.8814 16.3463 65.1381 21.7054C62.8599 24.2828 60.9051 27.1376 59.2521 30.1604C58.6916 31.1899 58.7275 32.4603 59.748 33.2051C60.6176 33.8184 62.1915 33.7307 62.7593 32.694Z" fill="#ACE0F0"/>
<path d="M49.735 40.4559C51.7547 41.2663 52.4016 39.609 53.2066 37.5575C54.0045 35.5059 54.6514 33.8413 52.6316 33.0309C50.6119 32.2206 46.594 32.5199 45.7961 34.5714C44.9911 36.623 47.7152 39.6455 49.735 40.4559Z" fill="#070633"/>
<path d="M57.0325 32.0802C55.9759 34.0074 57.5069 34.8761 59.4045 35.9565C61.302 37.0296 62.8402 37.8983 63.8968 35.9711C64.9534 34.0439 65.1834 29.9559 63.293 28.8828C61.3955 27.8097 58.0891 30.1603 57.0325 32.0802Z" fill="#070633"/>
<path d="M87.3217 123.947C88.5937 130.285 89.7436 136.674 91.2169 142.967C92.6039 148.874 94.5013 154.606 97.7353 159.738C103.01 168.098 111.397 174.531 120.776 177.342C131.175 180.452 142.689 179.131 152.204 173.844C161.324 168.77 169.007 159.972 170.66 149.283C172.183 139.404 167.188 127.781 157.199 124.809C152.578 123.436 147.331 123.779 143.141 126.306C138.707 128.978 135.998 133.709 135.617 138.915C134.798 150.152 144.018 158.723 154.302 160.585C159.865 161.593 165.787 160.651 170.803 158.008C175.482 155.547 179.377 151.809 182.532 147.56C189.137 138.674 193.025 127.525 194.678 116.602C195.555 110.812 195.741 104.927 195.289 99.0937C194.793 92.7196 193.521 86.4478 192.946 80.081C192.68 77.1021 192.601 74.1378 192.824 71.1515C193.032 68.3478 188.763 67.8879 188.548 70.6916C187.671 82.3299 191.307 93.6615 191.25 105.271C191.199 115.836 188.878 126.306 184.437 135.848C180.556 144.179 174.555 152.408 165.65 155.504C156.962 158.519 145.563 155.358 141.302 146.611C139.469 142.858 139.304 138.243 141.187 134.461C143.012 130.803 146.692 128.795 150.608 128.416C154.612 128.021 158.73 129.504 161.547 132.424C164.601 135.593 166.268 139.828 166.606 144.216C167.325 153.54 161.288 162.17 154.195 167.441C146.433 173.209 136.393 175.692 126.892 174.29C118.131 172.99 109.982 168.201 104.254 161.388C101.149 157.694 98.8924 153.481 97.3113 148.903C95.4212 143.442 94.4509 137.681 93.3154 132.023C92.7261 129.102 92.144 126.182 91.5547 123.261C91.0085 120.494 86.7683 121.187 87.3217 123.947Z" fill="#ACE0F0"/>
<path d="M111.419 102.97C109.277 101.547 107.057 102.174 105.425 103.971C105.382 104.014 105.346 104.051 105.318 104.087C105.188 104.226 105.167 104.255 105.318 104.087C105.167 104.248 105.023 104.409 104.872 104.562C104.477 104.985 104.074 105.402 103.672 105.818C102.91 106.599 102.141 107.373 101.35 108.125C99.7766 109.643 98.1595 111.104 96.4922 112.513C94.8752 113.878 93.215 115.192 91.5118 116.448C90.635 117.091 89.751 117.726 88.8526 118.339C88.3783 118.668 87.8968 118.989 87.4153 119.303C87.3865 119.317 87.2716 119.398 87.1566 119.471C87.1566 119.471 87.1494 119.471 87.1494 119.478C79.4883 119.493 71.8415 118.784 64.2954 117.456C62.0819 117.061 59.7031 119.091 59.5665 121.332C59.4156 123.822 61.011 125.713 63.3827 126.137C70.4257 127.378 77.5694 128.086 84.7202 128.159C85.1299 128.166 85.5467 128.159 85.9564 128.159C86.8547 132.722 87.7459 137.293 88.7448 141.834C89.2335 144.061 91.3177 145.937 93.6822 145.433C95.8526 144.966 97.7499 142.805 97.2252 140.417C96.1113 135.365 95.1339 130.276 94.1277 125.202C94.7242 124.8 95.3136 124.392 95.9029 123.968C98.6123 122.026 101.221 119.945 103.715 117.733C106.784 115.017 109.637 112.097 112.397 109.059C113.935 107.373 113.201 104.153 111.419 102.97Z" fill="#E03C31"/>
</svg>
