<svg width="208" height="180" viewBox="0 0 208 180" fill="none" xmlns="http://www.w3.org/2000/svg">
<path opacity="0.08" d="M103.67 180C151.261 180 189.84 141.42 189.84 93.8297C189.84 46.2392 151.261 7.65952 103.67 7.65952C56.0797 7.65952 17.5 46.2392 17.5 93.8297C17.5 141.42 56.0797 180 103.67 180Z" fill="#E03C31"/>
<path d="M87.5745 109.043C87.5745 109.043 85.6288 98.8944 79.5972 87.3899C73.5655 75.8855 55.4611 63.1424 55.4611 63.1424L83.5835 50.8301L114.458 45.9836C114.458 45.9836 106.581 53.3416 107.487 60.2394C108.393 67.1371 109.651 77.8486 114.126 90.5525C116.228 96.525 122.886 111.53 124.989 115.72C131.016 127.729 138.609 142.029 138.604 151.952C138.666 161.787 131.955 166.756 124.903 169.483C117.875 172.278 109.233 174.819 102.945 167.432C96.5532 160.02 92.5147 142.67 90.2178 129.359C89.1833 122.173 88.2531 115.304 87.5745 109.043Z" fill="#ACE0F0"/>
<path d="M42.5009 56.7061C48.9739 66.1152 70.9128 66.0467 95.5899 56.3683C120.272 46.6899 137.057 30.099 133.08 19.3142C129.108 8.52936 139.254 -7.49364 83.0805 6.86489C53.4015 14.448 23.7795 29.4772 42.5009 56.7061Z" fill="#CBECF6"/>
<path d="M140.453 1.95887C137.795 0.343401 135.28 0.26018 129.372 0.0154118C123.468 -0.229356 119.743 2.51205 117.935 3.22187C116.127 3.9317 100.144 10.5062 97.8279 14.8875C95.5121 19.2689 93.6945 26.8077 96.1432 32.8388C99.3228 40.6714 102.108 41.6505 105.331 44.2254C110.105 48.0389 113.18 46.4822 114.457 45.9829C120.061 43.7946 137.942 32.5059 137.942 32.5059C137.942 32.5059 148.098 27.4539 148.634 21.4865C149.109 16.1946 144.895 4.65621 140.453 1.95887Z" fill="white"/>
<path d="M118.88 23.185C123.811 36.5644 129.828 35.4385 137.113 31.4437C150.609 24.0368 148.042 20.5659 145.56 13.8394C143.078 7.10805 142.76 -2.42354 129.183 5.25754C121.955 9.34041 114.752 11.9742 118.88 23.185Z" fill="#ACE0F0"/>
<path d="M120.556 22.6785C125.027 34.805 129.559 33.8308 136.155 30.2129C148.389 23.501 146.985 20.309 144.735 14.209C142.486 8.10908 142.201 -0.531718 129.896 6.42988C123.342 10.1359 116.812 12.5201 120.556 22.6785Z" fill="#DFF6FD"/>
<path d="M138.725 5.73715L123.871 13.6972C123.871 13.6972 128.849 29.4557 129.504 28.9857C130.159 28.5157 144.22 20.6536 144.22 20.6536L138.725 5.73715Z" fill="#ACE0F0"/>
<path d="M137.575 7.68195L125.873 14.1045C125.873 14.1045 130.196 27.6057 130.708 27.2239C131.221 26.842 142.297 20.4831 142.297 20.4831L137.575 7.68195Z" fill="#E03C31"/>
<path d="M42.7863 56.6294C34.4625 44.5232 35.7011 34.8305 42.2453 27.1302C47.1 30.8213 51.2382 36.353 53.7534 43.1672C56.278 50.0158 56.7384 57.0259 55.4618 63.1352C49.582 62.2394 45.1496 60.0659 42.7863 56.6294Z" fill="white"/>
<path d="M101.187 79.8571C98.3823 72.2495 99.208 64.8721 103.023 63.3741C104.613 62.7523 106.474 63.2517 108.305 64.593C109.188 71.1627 110.597 80.1214 114.119 90.4606C113.82 90.6368 113.507 90.7935 113.174 90.9257C109.354 92.4188 103.987 87.4646 101.187 79.8571Z" fill="#DFF6FD"/>
<path d="M61.3734 37.5603L71.7331 33.4968C73.0571 32.9779 73.731 31.4308 73.2279 30.0649L73.1046 29.7271C72.6015 28.3611 71.1019 27.6659 69.7779 28.1849L59.4183 32.2484C58.0942 32.7673 57.4204 34.3144 57.9234 35.6803L58.0468 36.0181C58.5498 37.389 60.0447 38.0842 61.3734 37.5603Z" fill="#E03C31"/>
<path d="M106.321 77.589C107.446 81.6379 109.548 84.5704 111.01 84.1396C112.476 83.7088 112.751 80.0712 111.622 76.0224C110.497 71.9736 108.395 69.041 106.933 69.4718C105.472 69.9027 105.196 73.5353 106.321 77.589Z" fill="#CBECF6"/>
<path d="M111.769 84.2388C113.233 83.806 113.508 80.1723 112.383 76.1226C111.258 72.073 109.159 69.141 107.695 69.5738C106.232 70.0066 105.957 73.6403 107.082 77.6899C108.207 81.7396 110.305 84.6716 111.769 84.2388Z" fill="#E03C31"/>
<path d="M124.841 169.547C117.813 172.342 109.171 174.883 102.883 167.496C102.812 167.418 102.746 167.325 102.675 167.242C106.106 163.013 111.141 159.307 117.239 156.914C124.732 153.977 132.306 153.624 138.262 155.44C136.938 163.047 131.02 167.159 124.841 169.547Z" fill="#DFF6FD"/>
</svg>
