<svg width="208" height="180" viewBox="0 0 208 180" fill="none" xmlns="http://www.w3.org/2000/svg">
<path opacity="0.08" d="M111 180C160.706 180 201 139.706 201 90C201 40.2944 160.706 0 111 0C61.2946 0 21.0002 40.2944 21.0002 90C21.0002 139.706 61.2946 180 111 180Z" fill="#E03C31"/>
<path d="M154.343 114.78C154.343 114.78 148.122 51.04 165.273 50.0173C182.423 48.9945 160.092 93.6433 162.483 112.143L154.343 114.78Z" fill="#E03C31"/>
<path d="M153.224 118.381C153.224 118.381 150.11 54.0069 170.024 52.4302C189.938 50.8535 161.231 96.7864 162.814 115.451L153.224 118.381Z" fill="#ACE0F0"/>
<path d="M54.8928 140.246C54.4093 140.241 54.0639 139.431 54.1861 138.686L56.2264 126.109H58.8458L55.5994 139.442C55.4719 139.932 55.1956 140.246 54.8928 140.246Z" fill="#E03C31"/>
<path d="M56.1643 126.486C56.1643 126.486 57.5935 126.262 58.4755 127.647L58.8474 126.113L56.2387 125.953L56.1643 126.486Z" fill="#2F1A31"/>
<path d="M39.8645 64.2738L52.4567 106.803L53.7371 111.123L105.259 120.12L106.991 120.051C106.97 120.179 106.954 120.312 106.954 120.445V125.234C106.954 126.368 107.777 127.295 108.797 127.295H205.242C206.262 127.295 207.085 126.374 207.085 125.234C207.085 125.234 212.207 107.911 198.207 102.568C184.202 97.2254 168.708 107.629 160.069 104.539C158.826 104.092 157.965 102.946 157.322 101.311C153.476 91.5524 157.237 64.3537 133.233 64.2578L39.8645 64.2738Z" fill="#CBECF6"/>
<path d="M202.686 141.145C203.169 141.14 203.515 140.33 203.398 139.584L201.4 127.141H198.696L201.591 140.282C201.708 141.145 202.383 141.145 202.686 141.145Z" fill="#E03C31"/>
<path d="M115.844 141.141C116.327 141.136 116.673 140.326 116.556 139.58L114.558 127.137H111.854L114.749 140.278C114.866 141.141 115.536 141.141 115.844 141.141Z" fill="#E03C31"/>
<path d="M34.4291 71.4333L44.9279 123.076C45.5071 125.92 47.7811 127.928 50.3899 127.902L108.144 127.295C108.144 127.295 112.761 107.916 98.7555 102.573C84.75 97.2306 69.2569 107.634 60.6177 104.544C53.0252 101.828 58.8112 71.934 41.3203 64.6417C37.4151 63.0064 33.4621 66.9056 34.4291 71.4333Z" fill="#ACE0F0"/>
<path d="M49.2133 133.048C49.2133 133.048 48.9742 133.608 48.4588 134.535C48.4429 134.556 48.427 134.588 48.4163 134.615C48.4163 134.615 48.4163 134.615 48.411 134.62C47.5025 136.229 45.7757 138.871 43.0075 141.588C42.0618 142.515 40.7813 143.24 39.283 143.778L39.2511 143.789C38.9324 143.9 38.5976 144.007 38.2576 144.103C33.4173 145.493 26.7759 145.195 21.5637 143.682L20.6657 143.405C20.2194 143.256 19.7838 143.101 19.3693 142.936C18.0198 142.409 16.92 141.737 16.0327 140.992C15.9211 140.896 15.8095 140.8 15.7033 140.704C12.085 137.443 12.1488 133.043 12.1488 133.043H49.2133V133.048Z" fill="#CBECF6"/>
<path d="M50.4024 126.401V131.216C50.4024 134.199 41.4604 136.612 30.425 136.612C19.3949 136.612 10.4475 134.193 10.4475 131.216V126.401C10.4475 124.888 15.6013 123.588 22.9015 123.055C25.2234 122.885 27.7631 122.789 30.425 122.789C41.4604 122.784 50.4024 124.403 50.4024 126.401Z" fill="#ACE0F0"/>
<path d="M50.4024 126.401C50.4024 126.694 50.2165 126.976 49.8552 127.242C47.7618 128.83 39.8558 130.018 30.425 130.018C27.7843 130.018 25.2606 129.922 22.9494 129.751C15.6172 129.213 10.4475 127.919 10.4475 126.401C10.4475 124.888 15.6013 123.588 22.9015 123.055C25.2234 122.885 27.7631 122.789 30.425 122.789C41.4604 122.784 50.4024 124.403 50.4024 126.401Z" fill="#070633"/>
<path d="M30.9453 129.556C30.9453 129.556 19.9895 88.1614 9.00725 91.5972C-1.97504 95.0276 22.4177 117.688 25.2336 129.839L30.9453 129.556Z" fill="#E03C31"/>
<path d="M33.3961 127.359C33.3961 127.359 14.4706 89.858 2.65947 95.4565C-9.15167 101.055 21.909 117.728 27.0097 128.824L33.3961 127.359Z" fill="#CBECF6"/>
<path d="M64.0135 99.1082C63.9179 99.3425 63.8222 99.5769 63.716 99.8113C63.0306 101.361 62.122 102.88 61.1072 104.201C59.9755 105.676 59.7417 107.279 59.8267 108.894C59.8267 108.936 59.8321 108.984 59.8321 109.032C59.9808 111.434 60.7937 113.858 60.3474 115.904C60.3156 116.047 60.2784 116.191 60.2305 116.33C59.8746 117.454 59.067 118.45 57.4624 119.244C52.0908 121.902 51.2354 121.689 50.7572 124.022C50.7253 124.16 50.7041 124.309 50.6722 124.464C50.5978 124.906 50.5234 125.433 50.4384 126.067C50.4384 126.067 50.5394 126.776 49.8486 127.239C47.9837 128.651 41.5229 129.748 33.4788 129.972C33.3301 129.977 33.1813 129.977 33.0325 129.982C32.1771 130.004 31.3057 130.014 30.4184 130.014C27.7725 130.014 25.2541 129.924 22.9428 129.753C22.369 128.262 21.8271 125.796 22.895 123.058C23.2829 122.051 23.8939 121.007 24.8024 119.963C29.6108 114.401 33.4788 115.376 32.5756 105.543C32.565 105.431 32.5543 105.319 32.5437 105.202C32.5331 105.111 32.5278 105.016 32.5171 104.92C31.3961 94.4152 45.4122 98.959 48.9188 95.4113C52.4202 91.8637 54.8058 87.8899 61.1125 89.4506C65.5437 90.5373 65.6818 94.8627 64.0135 99.1082Z" fill="#75CBE6"/>
</svg>
